<svg width="32" height="32" viewBox="0 0 32 32" fill="none" xmlns="http://www.w3.org/2000/svg">
<path fill-rule="evenodd" clip-rule="evenodd" d="M16 3C11.0294 3 7 7.02944 7 12C8.65685 12 10 13.3431 10 15V21C10 22.6569 8.65685 24 7 24H5C3.34315 24 2 22.6569 2 21V15C2 13.3431 3.34315 12 5 12C5 5.92487 9.92487 1 16 1C22.0751 1 27 5.92487 27 12C28.6569 12 30 13.3431 30 15V21C30 22.6569 28.6569 24 27 24H26.9291C26.4833 27.1166 23.9846 29.571 20.8467 29.9493C20.4495 31.1409 19.3251 32 18 32C16.3431 32 15 30.6569 15 29C15 27.3431 16.3431 26 18 26C19.282 26 20.3761 26.8041 20.8056 27.9354C22.8571 27.6031 24.4901 26.0226 24.9003 23.9984C23.2896 23.9458 22 22.6235 22 21V15C22 13.3431 23.3431 12 25 12C25 7.02944 20.9706 3 16 3ZM19 29C19 28.4477 18.5523 28 18 28C17.4477 28 17 28.4477 17 29C17 29.5523 17.4477 30 18 30C18.5523 30 19 29.5523 19 29ZM4 15C4 14.4477 4.44772 14 5 14H7C7.55228 14 8 14.4477 8 15V21C8 21.5523 7.55228 22 7 22H5C4.44772 22 4 21.5523 4 21V15ZM25 14C24.4477 14 24 14.4477 24 15V21C24 21.5523 24.4477 22 25 22H27C27.5523 22 28 21.5523 28 21V15C28 14.4477 27.5523 14 27 14H25Z" fill="black"/>
</svg>
