<svg width="32" height="32" viewBox="0 0 32 32" fill="none" xmlns="http://www.w3.org/2000/svg">
<path fill-rule="evenodd" clip-rule="evenodd" d="M3.00017 9.98056C2.99994 9.99292 2.99994 10.0053 3.00017 10.0176V23C3.00017 24.1046 3.8956 25 5.00017 25H27.0002C28.1047 25 29.0002 24.1046 29.0002 23V10.0166C29.0004 10.0049 29.0004 9.9932 29.0002 9.98147V9C29.0002 7.89543 28.1047 7 27.0002 7H5.00017C3.8956 7 3.00017 7.89543 3.00017 9V9.98056ZM5.00017 9H27.0002V9.43215L16.2556 15.8422L5.00017 9.41929V9ZM27.0002 11.761V23H5.00017V11.722L15.7712 17.8685C16.0844 18.0472 16.4695 18.0435 16.7792 17.8588L27.0002 11.761Z" fill="black"/>
</svg>
