<svg width="32" height="32" viewBox="0 0 32 32" fill="none" xmlns="http://www.w3.org/2000/svg">
<path fill-rule="evenodd" clip-rule="evenodd" d="M12 12.0001C12 9.79092 13.7909 8.00006 16 8.00006C18.2091 8.00006 20 9.79092 20 12.0001C20 14.2092 18.2091 16.0001 16 16.0001C13.7909 16.0001 12 14.2092 12 12.0001ZM16 10.0001C14.8954 10.0001 14 10.8955 14 12.0001C14 13.1046 14.8954 14.0001 16 14.0001C17.1046 14.0001 18 13.1046 18 12.0001C18 10.8955 17.1046 10.0001 16 10.0001Z" fill="black"/>
<path d="M13 21.0001C13 20.557 13.2371 20.0796 13.7716 19.6787C14.3063 19.2777 15.0909 19.0001 16 19.0001C16.9091 19.0001 17.6937 19.2777 18.2284 19.6787C18.7629 20.0796 19 20.557 19 21.0001C19 21.5523 19.4477 22.0001 20 22.0001C20.5523 22.0001 21 21.5523 21 21.0001C21 19.7863 20.3417 18.7637 19.4284 18.0787C18.5155 17.394 17.3 17.0001 16 17.0001C14.7 17.0001 13.4845 17.394 12.5716 18.0787C11.6583 18.7637 11 19.7863 11 21.0001C11 21.5523 11.4477 22.0001 12 22.0001C12.5523 22.0001 13 21.5523 13 21.0001Z" fill="black"/>
<path fill-rule="evenodd" clip-rule="evenodd" d="M14.6484 29.0923C15.3971 29.8069 16.5674 29.8323 17.3463 29.1507L22.6673 24.4948C23.0319 24.1758 23.4999 24 23.9843 24H25C27.2091 24 29 22.2091 29 20V9C29 6.79086 27.2091 5 25 5H7C4.79086 5 3 6.79086 3 9V20C3 22.2091 4.79086 24 7 24H8.51231C9.02665 24 9.52122 24.1982 9.89326 24.5533L14.6484 29.0923ZM21.3503 22.9897L16.0293 27.6456L11.2742 23.1066C10.5301 22.3963 9.54098 22 8.51231 22H7C5.89543 22 5 21.1046 5 20V9C5 7.89543 5.89543 7 7 7H25C26.1046 7 27 7.89543 27 9V20C27 21.1046 26.1046 22 25 22H23.9843C23.0155 22 22.0795 22.3517 21.3503 22.9897Z" fill="black"/>
</svg>
